<?xml version="1.0" encoding="UTF-8"?>
<svg id="Layer_1" xmlns="http://www.w3.org/2000/svg" version="1.1" viewBox="0 0 200 200">
  <!-- Generator: Adobe Illustrator 29.7.1, SVG Export Plug-In . SVG Version: 2.1.1 Build 8)  -->
  <path d="M142.96,140.5l-21.93,19.69h-15.45s17.55-15.71,26.01-23.7v-53.36s-35.12-28.07-35.12-28.07l-39.44,29.17v-14.65l38.63-29.8,47.3,37.58"/>
  <g>
    <path d="M116.55,85.16v43.64c-8.46,7.99-16.87,16.09-25.59,23.8-.3.26-7.09,6.66-7.09,6.66l15.89.94,27.85-25.86-.02-49.18"/>
    <path d="M68.12,116.25v12.55c8.46,7.99,16.87,16.09,25.59,23.8.3.26,7.15,6.62,7.15,6.62l-15.95.99-27.84-25.42v-18.53"/>
    <rect x="84.9" y="147.63" width="14.89" height="12.57"/>
  </g>
</svg>